<svg width="40" height="50" viewBox="0 0 40 50" fill="none" xmlns="http://www.w3.org/2000/svg">
<rect width="40" height="50" rx="5" fill="#67C6DB"/>
<path d="M34.3987 10.9048L32.1 8.96683L32.3939 5.97454C32.402 5.89266 32.3828 5.81035 32.3393 5.74052C32.2303 5.56515 31.999 5.51106 31.8226 5.61944L29.2694 7.2074L26.5142 6.00392C26.4383 5.97057 26.3542 5.96382 26.2745 5.98327C26.1779 6.00722 26.0947 6.06855 26.0433 6.15379C25.9919 6.23902 25.9764 6.34119 26.0002 6.43784L26.7205 9.35682L24.724 11.6054C24.6775 11.6576 24.6466 11.7219 24.6347 11.7908C24.6228 11.8598 24.6305 11.9307 24.6569 11.9955C24.6833 12.0603 24.7273 12.1164 24.7839 12.1575C24.8406 12.1985 24.9076 12.2229 24.9774 12.2278L27.9763 12.4444L29.4979 15.0377C29.5392 15.1089 29.6041 15.1644 29.6801 15.1952C29.8719 15.2729 30.0904 15.1811 30.1682 14.9894L31.3008 12.2038L34.2371 11.5577C34.3172 11.5399 34.3896 11.4966 34.4429 11.4331C34.578 11.2757 34.5568 11.039 34.3987 10.9048Z" fill="#FB7979"/>
<path d="M8.38636 21H7.68182C7.64015 20.7973 7.56724 20.6193 7.46307 20.4659C7.3608 20.3125 7.2358 20.1837 7.08807 20.0795C6.94223 19.9735 6.7803 19.8939 6.60227 19.8409C6.42424 19.7879 6.23864 19.7614 6.04545 19.7614C5.69318 19.7614 5.37405 19.8504 5.08807 20.0284C4.80398 20.2064 4.57765 20.4688 4.40909 20.8153C4.24242 21.1619 4.15909 21.5871 4.15909 22.0909C4.15909 22.5947 4.24242 23.0199 4.40909 23.3665C4.57765 23.7131 4.80398 23.9754 5.08807 24.1534C5.37405 24.3314 5.69318 24.4205 6.04545 24.4205C6.23864 24.4205 6.42424 24.3939 6.60227 24.3409C6.7803 24.2879 6.94223 24.2093 7.08807 24.1051C7.2358 23.9991 7.3608 23.8693 7.46307 23.7159C7.56724 23.5606 7.64015 23.3826 7.68182 23.1818H8.38636C8.33333 23.4792 8.23674 23.7453 8.09659 23.9801C7.95644 24.215 7.7822 24.4148 7.57386 24.5795C7.36553 24.7424 7.13163 24.8665 6.87216 24.9517C6.61458 25.0369 6.33902 25.0795 6.04545 25.0795C5.54924 25.0795 5.10795 24.9583 4.72159 24.7159C4.33523 24.4735 4.03125 24.1288 3.80966 23.6818C3.58807 23.2348 3.47727 22.7045 3.47727 22.0909C3.47727 21.4773 3.58807 20.947 3.80966 20.5C4.03125 20.053 4.33523 19.7083 4.72159 19.4659C5.10795 19.2235 5.54924 19.1023 6.04545 19.1023C6.33902 19.1023 6.61458 19.1449 6.87216 19.2301C7.13163 19.3153 7.36553 19.4403 7.57386 19.6051C7.7822 19.768 7.95644 19.9669 8.09659 20.2017C8.23674 20.4347 8.33333 20.7008 8.38636 21ZM10.718 25.1023C10.4415 25.1023 10.1906 25.0502 9.9652 24.946C9.73982 24.84 9.56084 24.6875 9.42827 24.4886C9.29569 24.2879 9.2294 24.0455 9.2294 23.7614C9.2294 23.5114 9.27865 23.3087 9.37713 23.1534C9.47562 22.9962 9.60724 22.8731 9.77202 22.7841C9.93679 22.6951 10.1186 22.6288 10.3175 22.5852C10.5182 22.5398 10.7199 22.5038 10.9226 22.4773C11.1877 22.4432 11.4027 22.4176 11.5675 22.4006C11.7341 22.3816 11.8554 22.3504 11.9311 22.3068C12.0088 22.2633 12.0476 22.1875 12.0476 22.0795V22.0568C12.0476 21.7765 11.9709 21.5587 11.8175 21.4034C11.666 21.2481 11.4358 21.1705 11.1271 21.1705C10.8071 21.1705 10.5561 21.2405 10.3743 21.3807C10.1925 21.5208 10.0646 21.6705 9.99077 21.8295L9.3544 21.6023C9.46804 21.3371 9.61955 21.1307 9.80895 20.983C10.0002 20.8333 10.2086 20.7292 10.4339 20.6705C10.6612 20.6098 10.8847 20.5795 11.1044 20.5795C11.2446 20.5795 11.4055 20.5966 11.5874 20.6307C11.7711 20.6629 11.9482 20.7301 12.1186 20.8324C12.291 20.9347 12.4339 21.089 12.5476 21.2955C12.6612 21.5019 12.718 21.7784 12.718 22.125V25H12.0476V24.4091H12.0135C11.968 24.5038 11.8923 24.6051 11.7862 24.7131C11.6802 24.821 11.5391 24.9129 11.3629 24.9886C11.1868 25.0644 10.9718 25.1023 10.718 25.1023ZM10.8203 24.5C11.0855 24.5 11.3089 24.4479 11.4908 24.3438C11.6745 24.2396 11.8127 24.1051 11.9055 23.9403C12.0002 23.7756 12.0476 23.6023 12.0476 23.4205V22.8068C12.0192 22.8409 11.9567 22.8722 11.8601 22.9006C11.7654 22.9271 11.6555 22.9508 11.5305 22.9716C11.4074 22.9905 11.2872 23.0076 11.1697 23.0227C11.0542 23.036 10.9605 23.0473 10.8885 23.0568C10.7143 23.0795 10.5514 23.1165 10.3999 23.1676C10.2502 23.2169 10.129 23.2917 10.0362 23.392C9.94531 23.4905 9.89986 23.625 9.89986 23.7955C9.89986 24.0284 9.98603 24.2045 10.1584 24.3239C10.3326 24.4413 10.5533 24.5 10.8203 24.5ZM13.9418 25V20.6364H14.5895V21.2955H14.6349C14.7145 21.0795 14.8584 20.9044 15.0668 20.7699C15.2751 20.6354 15.5099 20.5682 15.7713 20.5682C15.8205 20.5682 15.8821 20.5691 15.956 20.571C16.0298 20.5729 16.0857 20.5758 16.1236 20.5795V21.2614C16.1009 21.2557 16.0488 21.2472 15.9673 21.2358C15.8878 21.2225 15.8035 21.2159 15.7145 21.2159C15.5024 21.2159 15.313 21.2604 15.1463 21.3494C14.9815 21.4366 14.8509 21.5578 14.7543 21.7131C14.6596 21.8665 14.6122 22.0417 14.6122 22.2386V25H13.9418ZM18.4332 25.0909C18.0696 25.0909 17.7486 24.9991 17.4702 24.8153C17.1918 24.6297 16.974 24.3684 16.8168 24.0312C16.6596 23.6922 16.581 23.2917 16.581 22.8295C16.581 22.3712 16.6596 21.9735 16.8168 21.6364C16.974 21.2992 17.1927 21.0388 17.473 20.8551C17.7533 20.6714 18.0772 20.5795 18.4446 20.5795C18.7287 20.5795 18.9531 20.6269 19.1179 20.7216C19.2846 20.8144 19.4115 20.9205 19.4986 21.0398C19.5876 21.1572 19.6567 21.2538 19.706 21.3295H19.7628V19.1818H20.4332V25H19.7855V24.3295H19.706C19.6567 24.4091 19.5866 24.5095 19.4957 24.6307C19.4048 24.75 19.2751 24.857 19.1065 24.9517C18.938 25.0445 18.7135 25.0909 18.4332 25.0909ZM18.5241 24.4886C18.7931 24.4886 19.0204 24.4186 19.206 24.2784C19.3916 24.1364 19.5327 23.9403 19.6293 23.6903C19.7259 23.4384 19.7741 23.1477 19.7741 22.8182C19.7741 22.4924 19.7268 22.2074 19.6321 21.9631C19.5374 21.7169 19.3973 21.5256 19.2116 21.3892C19.026 21.2509 18.7969 21.1818 18.5241 21.1818C18.2401 21.1818 18.0033 21.2547 17.8139 21.4006C17.6264 21.5445 17.4853 21.7405 17.3906 21.9886C17.2978 22.2348 17.2514 22.5114 17.2514 22.8182C17.2514 23.1288 17.2988 23.411 17.3935 23.6648C17.4901 23.9167 17.6321 24.1174 17.8196 24.267C18.009 24.4148 18.2438 24.4886 18.5241 24.4886Z" fill="#1E1E1E"/>
<path d="M3.70455 28.1818H4.54545L6.52273 33.0114H6.59091L8.56818 28.1818H9.40909V34H8.75V29.5795H8.69318L6.875 34H6.23864L4.42045 29.5795H4.36364V34H3.70455V28.1818ZM12.0149 34.1023C11.7384 34.1023 11.4875 34.0502 11.2621 33.946C11.0367 33.84 10.8577 33.6875 10.7251 33.4886C10.5926 33.2879 10.5263 33.0455 10.5263 32.7614C10.5263 32.5114 10.5755 32.3087 10.674 32.1534C10.7725 31.9962 10.9041 31.8731 11.0689 31.7841C11.2337 31.6951 11.4155 31.6288 11.6143 31.5852C11.8151 31.5398 12.0168 31.5038 12.2195 31.4773C12.4846 31.4432 12.6996 31.4176 12.8643 31.4006C13.031 31.3816 13.1522 31.3504 13.228 31.3068C13.3056 31.2633 13.3445 31.1875 13.3445 31.0795V31.0568C13.3445 30.7765 13.2678 30.5587 13.1143 30.4034C12.9628 30.2481 12.7327 30.1705 12.424 30.1705C12.1039 30.1705 11.853 30.2405 11.6712 30.3807C11.4893 30.5208 11.3615 30.6705 11.2876 30.8295L10.6513 30.6023C10.7649 30.3371 10.9164 30.1307 11.1058 29.983C11.2971 29.8333 11.5054 29.7292 11.7308 29.6705C11.9581 29.6098 12.1816 29.5795 12.4013 29.5795C12.5414 29.5795 12.7024 29.5966 12.8842 29.6307C13.0679 29.6629 13.245 29.7301 13.4155 29.8324C13.5878 29.9347 13.7308 30.089 13.8445 30.2955C13.9581 30.5019 14.0149 30.7784 14.0149 31.125V34H13.3445V33.4091H13.3104C13.2649 33.5038 13.1892 33.6051 13.0831 33.7131C12.977 33.821 12.8359 33.9129 12.6598 33.9886C12.4837 34.0644 12.2687 34.1023 12.0149 34.1023ZM12.1172 33.5C12.3823 33.5 12.6058 33.4479 12.7876 33.3438C12.9714 33.2396 13.1096 33.1051 13.2024 32.9403C13.2971 32.7756 13.3445 32.6023 13.3445 32.4205V31.8068C13.3161 31.8409 13.2536 31.8722 13.157 31.9006C13.0623 31.9271 12.9524 31.9508 12.8274 31.9716C12.7043 31.9905 12.584 32.0076 12.4666 32.0227C12.3511 32.036 12.2573 32.0473 12.1854 32.0568C12.0111 32.0795 11.8482 32.1165 11.6967 32.1676C11.5471 32.2169 11.4259 32.2917 11.3331 32.392C11.2422 32.4905 11.1967 32.625 11.1967 32.7955C11.1967 33.0284 11.2829 33.2045 11.4553 33.3239C11.6295 33.4413 11.8501 33.5 12.1172 33.5ZM15.8636 32.4091L15.8523 31.5795H15.9886L17.8977 29.6364H18.7273L16.6932 31.6932H16.6364L15.8636 32.4091ZM15.2386 34V28.1818H15.9091V34H15.2386ZM18.0114 34L16.3068 31.8409L16.7841 31.375L18.8636 34H18.0114ZM21.2401 34.0909C20.8196 34.0909 20.4569 33.9981 20.152 33.8125C19.849 33.625 19.6151 33.3636 19.4503 33.0284C19.2874 32.6913 19.206 32.2992 19.206 31.8523C19.206 31.4053 19.2874 31.0114 19.4503 30.6705C19.6151 30.3277 19.8442 30.0606 20.1378 29.8693C20.4332 29.6761 20.7779 29.5795 21.1719 29.5795C21.3991 29.5795 21.6236 29.6174 21.8452 29.6932C22.0668 29.7689 22.2685 29.892 22.4503 30.0625C22.6321 30.2311 22.777 30.4545 22.8849 30.733C22.9929 31.0114 23.0469 31.3542 23.0469 31.7614V32.0455H19.6832V31.4659H22.3651C22.3651 31.2197 22.3158 31 22.2173 30.8068C22.1207 30.6136 21.9825 30.4612 21.8026 30.3494C21.6245 30.2377 21.4143 30.1818 21.1719 30.1818C20.9048 30.1818 20.6738 30.2481 20.4787 30.3807C20.2855 30.5114 20.1368 30.6818 20.0327 30.892C19.9285 31.1023 19.8764 31.3277 19.8764 31.5682V31.9545C19.8764 32.2841 19.9332 32.5634 20.0469 32.7926C20.1624 33.0199 20.3224 33.1932 20.527 33.3125C20.7315 33.4299 20.9692 33.4886 21.2401 33.4886C21.4162 33.4886 21.5753 33.464 21.7173 33.4148C21.8613 33.3636 21.9853 33.2879 22.0895 33.1875C22.1937 33.0852 22.2741 32.9583 22.331 32.8068L22.9787 32.9886C22.9105 33.2083 22.7959 33.4015 22.6349 33.5682C22.474 33.733 22.2751 33.8617 22.0384 33.9545C21.8016 34.0455 21.5355 34.0909 21.2401 34.0909ZM24.0668 34V29.6364H24.7145V30.2955H24.7599C24.8395 30.0795 24.9834 29.9044 25.1918 29.7699C25.4001 29.6354 25.6349 29.5682 25.8963 29.5682C25.9455 29.5682 26.0071 29.5691 26.081 29.571C26.1548 29.5729 26.2107 29.5758 26.2486 29.5795V30.2614C26.2259 30.2557 26.1738 30.2472 26.0923 30.2358C26.0128 30.2225 25.9285 30.2159 25.8395 30.2159C25.6274 30.2159 25.438 30.2604 25.2713 30.3494C25.1065 30.4366 24.9759 30.5578 24.8793 30.7131C24.7846 30.8665 24.7372 31.0417 24.7372 31.2386V34H24.0668Z" fill="#1E1E1E"/>
<g clip-path="url(#clip0_11_11)">
<path d="M9.86022 5.20748C6.70332 5.79411 4.62085 8.82718 5.20748 11.9841C5.79411 15.141 8.82719 17.2234 11.9841 16.6368C15.141 16.0502 17.2235 13.0171 16.6368 9.86021C16.0502 6.70332 13.0171 4.62084 9.86022 5.20748ZM7.01439 9.57196L7.79718 9.3073L8.01904 8.51277C8.06102 8.3667 8.24767 8.33202 8.33933 8.45325L8.83181 9.11504L9.65742 9.08081C9.80457 9.07731 9.89933 9.24087 9.81303 9.36657L9.33307 10.0422L9.62077 10.8207C9.67036 10.9593 9.54575 11.0969 9.40113 11.0498L8.61282 10.8101L7.96137 11.3198C7.8433 11.4156 7.67757 11.332 7.67407 11.1848L7.66288 10.3549L6.97225 9.89684C6.84613 9.80824 6.8758 9.62155 7.01439 9.57196ZM11.6758 14.9777C10.2794 15.2372 8.41249 14.6711 7.96268 13.4436C7.86607 13.1802 8.08492 12.9083 8.36303 12.9424C9.10046 13.0366 10.1586 12.9711 11.2647 12.7656C12.3708 12.5601 13.3819 12.2411 14.0362 11.8882C14.2854 11.7537 14.5831 11.932 14.5899 12.2121C14.6111 13.5192 13.0722 14.7182 11.6758 14.9777ZM14.2396 8.544L13.7596 9.21962L14.0473 9.99813C14.0969 10.1367 13.9723 10.2743 13.8277 10.2273L13.0371 9.988L12.3856 10.4976C12.2676 10.5935 12.1018 10.5098 12.0983 10.3627L12.0871 9.53279L11.3965 9.0747C11.2731 8.98797 11.3005 8.80171 11.4391 8.75212L12.2219 8.48746L12.4437 7.69293C12.4857 7.54686 12.6724 7.51218 12.764 7.63341L13.2565 8.2952L14.0821 8.26097C14.2311 8.25474 14.3259 8.4183 14.2396 8.544Z" fill="#6461F9"/>
</g>
<path d="M23.648 35.3286L23.4502 35.6633L22.9126 36.5737C22.4833 36.4716 22.0836 36.4482 21.6147 36.5767L20.6377 35.6047L20.4414 35.4099L20.2971 35.6458C19.4521 37.0205 19.3302 38.1573 19.7837 38.9753C20.0099 39.3835 20.3671 39.6957 20.8171 39.9165C20.7138 40.6889 20.8202 41.593 21.0669 42.4624L21.1123 42.6214H23.3894C23.3899 42.9354 23.4643 43.2367 23.5938 43.5091C24.0204 44.4065 24.9929 45.0278 25.9053 45.094C26.9051 45.1665 27.779 44.7954 28.4871 44.24C29.1953 43.6846 29.7471 42.9459 30.1402 42.2493C30.775 41.1242 30.6861 39.9663 30.1233 39.1269C29.5958 38.34 28.6609 37.8324 27.5709 37.8415C27.4982 37.8421 27.4251 37.845 27.3511 37.8503C26.5655 37.9063 25.6946 38.2366 24.8148 38.9043C24.6932 38.8214 24.5753 38.7451 24.4596 38.6743C24.6735 37.9456 24.5263 36.9675 23.8319 35.6714L23.648 35.3286L23.648 35.3286ZM20.5329 36.1182L21.3965 36.9773L21.4917 37.0718L21.6184 37.0308C22.1339 36.8638 22.4624 36.8943 22.9609 37.033L23.1227 37.0784L23.2077 36.9334L23.6215 36.2339C23.9014 36.8204 24.0471 37.3111 24.094 37.7222C23.4061 37.417 22.9981 37.8159 22.9353 38.4524C23.492 38.721 23.8479 38.6691 24.0735 38.4077C24.0457 38.5462 24.0036 38.6718 23.9497 38.7849C23.675 39.3605 23.0711 39.6869 22.4087 39.8682C21.3191 39.7861 20.5169 39.3947 20.1667 38.7629C19.8354 38.1653 19.8734 37.2924 20.5329 36.1182ZM21.1628 37.6174C20.9718 37.6164 20.7454 37.6865 20.4861 37.8474C20.6503 38.5295 21.0346 38.8603 21.8799 38.4524C21.832 37.967 21.5831 37.6197 21.1628 37.6174L21.1628 37.6174ZM27.5745 38.2796C28.5275 38.2708 29.316 38.7096 29.7593 39.3708C30.2321 40.0761 30.323 41.0336 29.7585 42.0339C29.387 42.6926 28.8629 43.3883 28.2168 43.895C27.5707 44.4018 26.8125 44.7203 25.9375 44.6568C25.2092 44.6039 24.3348 44.0485 23.9893 43.3215C23.8165 42.9581 23.7655 42.5603 23.9036 42.135C24.0416 41.7097 24.3765 41.2475 25.0139 40.7896C25.5138 40.4304 25.8595 40.5364 26.0085 40.7046C26.0831 40.7887 26.115 40.8925 26.0928 41.0086C26.0706 41.1246 25.9915 41.2621 25.7969 41.3902C25.2093 41.7772 24.9381 42.2206 24.9649 42.6397C24.9916 43.0587 25.3181 43.3789 25.7273 43.5069C26.5459 43.7629 27.7615 43.3101 28.3128 41.6846L27.8975 41.544C27.8135 41.7916 27.7152 42.0019 27.6082 42.1841H25.5589C25.658 42.051 25.8092 41.9063 26.0379 41.7556C26.3102 41.5763 26.4754 41.3391 26.5228 41.0913C26.5701 40.8436 26.4963 40.5939 26.3367 40.4138C26.0175 40.0537 25.3807 39.9872 24.7584 40.4344C24.0664 40.9315 23.6611 41.465 23.4876 41.9996C23.4677 42.061 23.4516 42.1223 23.4378 42.1834H21.4492C21.2618 41.4578 21.1941 40.7172 21.2544 40.0938C21.6061 40.2094 21.997 40.2806 22.4145 40.3092L22.4504 40.3113L22.4856 40.3026C23.1891 40.1162 23.9105 39.7638 24.2888 39.0824C24.4196 39.1636 24.5548 39.2526 24.6953 39.3519L24.8293 39.4463L24.9583 39.3446C25.8257 38.6536 26.6599 38.3384 27.3818 38.287C27.4467 38.2823 27.5109 38.2802 27.5745 38.2797V38.2796ZM25.4028 42.6221H27.2837C26.8019 43.1296 26.2361 43.207 25.8577 43.0886C25.5808 43.0021 25.4207 42.8258 25.4028 42.6221V42.6221Z" fill="white"/>
<defs>
<clipPath id="clip0_11_11">
<rect width="12" height="12" fill="white" transform="translate(7.88248 3) rotate(24.0085)"/>
</clipPath>
</defs>
</svg>
